<svg width="518" height="523" viewBox="0 0 518 523" fill="none" xmlns="http://www.w3.org/2000/svg">
<path opacity="0.02" d="M256.959 173.985C257.481 146.827 279.875 125.341 307.214 125.99C334.468 126.637 355.872 149.352 354.923 176.692C353.989 203.704 331.415 224.861 304.292 223.951C277.63 223.057 256.461 200.978 256.959 173.985ZM348.982 176.225C349.034 173.243 348.844 170.493 348.378 167.766C347.504 162.663 345.914 157.809 343.369 153.279C341.127 149.288 337.885 146.503 333.562 144.981C330.917 144.051 328.176 143.537 325.423 143.088C320.731 142.323 316.214 141.031 311.908 138.981C309.251 137.715 306.567 136.492 303.835 135.405C298.691 133.361 293.508 133.279 288.374 135.49C283.657 137.522 279.512 140.42 275.835 143.986C272.62 147.105 269.991 150.672 267.848 154.607C265.303 159.283 264.564 164.18 265.853 169.369C266.583 172.304 267.743 175.078 268.969 177.825C270.811 181.95 272.381 186.158 273.298 190.599C273.977 193.898 274.647 197.209 275.533 200.457C277.054 206.032 280.366 210.284 285.482 213.042C291.583 216.328 298.103 218.064 305.041 218.19C310.822 218.296 316.079 216.704 320.822 213.39C323.209 211.72 325.387 209.805 327.471 207.784C330.801 204.555 334.218 201.423 337.767 198.434C340.112 196.461 342.352 194.377 344.209 191.919C346.036 189.5 347.395 186.84 348.1 183.892C348.718 181.309 348.928 178.663 348.986 176.223L348.982 176.225Z" fill="white"/>
<path opacity="0.02" d="M316.226 261.88C291.431 250.787 280.404 221.777 291.684 196.866C302.93 172.032 332.203 161.206 356.998 172.762C381.497 184.178 392.151 213.224 380.714 237.835C369.473 262.027 340.877 272.886 316.226 261.88ZM354.247 178.049C351.522 176.836 348.917 175.936 346.224 175.3C341.185 174.11 336.096 173.676 330.932 174.249C326.382 174.754 322.551 176.649 319.461 180.034C317.571 182.105 316.028 184.428 314.539 186.786C312.001 190.806 309.046 194.459 305.477 197.621C303.273 199.572 301.099 201.565 299.03 203.656C295.139 207.592 293.038 212.33 293.067 217.92C293.094 223.057 294.142 228.005 295.988 232.782C297.602 236.96 299.859 240.774 302.644 244.284C305.953 248.455 310.172 251.048 315.452 251.889C318.439 252.364 321.445 252.381 324.453 252.325C328.97 252.242 333.457 252.441 337.903 253.332C341.206 253.996 344.515 254.674 347.851 255.127C353.577 255.905 358.785 254.518 363.323 250.886C368.732 246.555 372.878 241.232 375.705 234.894C378.061 229.614 378.65 224.153 377.452 218.493C376.849 215.643 375.936 212.889 374.891 210.182C373.22 205.854 371.672 201.486 370.308 197.05C369.407 194.121 368.365 191.245 366.828 188.575C365.315 185.948 363.398 183.658 360.959 181.857C358.823 180.279 356.47 179.051 354.247 178.044L354.247 178.049Z" fill="white"/>
<path opacity="0.02" d="M263.734 273.478C266.667 246.473 290.882 227.062 318.055 230.137C345.143 233.203 364.444 257.73 361.071 284.877C357.74 311.7 333.376 330.767 306.441 327.451C279.964 324.192 260.84 300.319 263.734 273.478ZM355.195 283.885C355.511 280.919 355.566 278.163 355.344 275.405C354.927 270.244 353.775 265.268 351.642 260.531C349.763 256.356 346.782 253.294 342.611 251.394C340.059 250.232 337.374 249.477 334.673 248.786C330.067 247.607 325.682 245.918 321.576 243.494C319.042 241.997 316.477 240.54 313.852 239.215C308.91 236.722 303.755 236.18 298.445 237.926C293.566 239.531 289.18 242.049 285.201 245.275C281.721 248.095 278.786 251.415 276.302 255.144C273.351 259.575 272.18 264.387 273.003 269.67C273.47 272.658 274.378 275.524 275.355 278.369C276.824 282.642 278.013 286.972 278.532 291.477C278.916 294.824 279.289 298.181 279.883 301.495C280.903 307.183 283.824 311.713 288.675 314.914C294.46 318.729 300.799 321.038 307.699 321.78C313.448 322.398 318.825 321.28 323.843 318.4C326.37 316.95 328.709 315.235 330.964 313.408C334.569 310.487 338.25 307.671 342.051 305.009C344.561 303.252 346.977 301.376 349.045 299.092C351.081 296.845 352.67 294.317 353.634 291.442C354.479 288.925 354.924 286.308 355.199 283.883L355.195 283.885Z" fill="white"/>
<path opacity="0.02" d="M300.648 111.517C303.581 84.5123 327.796 65.1008 354.969 68.176C382.057 71.2421 401.358 95.7689 397.985 122.916C394.654 149.739 370.29 168.806 343.355 165.49C316.878 162.231 297.754 138.358 300.648 111.517ZM392.109 121.924C392.425 118.958 392.48 116.202 392.258 113.444C391.841 108.283 390.689 103.307 388.556 98.5698C386.677 94.3954 383.696 91.3326 379.525 89.4329C376.973 88.2714 374.288 87.5166 371.587 86.8248C366.981 85.646 362.596 83.9575 358.49 81.533C355.956 80.036 353.391 78.5795 350.766 77.2536C345.825 74.7613 340.669 74.2186 335.359 75.9653C330.48 77.5701 326.094 80.0881 322.115 83.3136C318.635 86.1341 315.7 89.4539 313.216 93.183C310.265 97.6143 309.094 102.426 309.917 107.709C310.384 110.697 311.292 113.563 312.269 116.408C313.738 120.681 314.927 125.011 315.446 129.516C315.83 132.863 316.203 136.22 316.797 139.535C317.817 145.222 320.738 149.752 325.589 152.953C331.374 156.768 337.713 159.077 344.613 159.819C350.362 160.437 355.739 159.319 360.757 156.439C363.284 154.989 365.624 153.274 367.878 151.447C371.483 148.526 375.164 145.71 378.965 143.048C381.475 141.291 383.891 139.415 385.959 137.131C387.995 134.884 389.584 132.356 390.548 129.481C391.394 126.964 391.838 124.347 392.113 121.922L392.109 121.924Z" fill="white"/>
<path opacity="0.02" d="M143.086 107.343C146.019 80.3385 170.233 60.927 197.406 64.0022C224.495 67.0683 243.796 91.5951 240.422 118.742C237.092 145.565 212.728 164.632 185.792 161.316C159.316 158.057 140.191 134.184 143.086 107.343ZM234.546 117.75C234.863 114.784 234.918 112.028 234.695 109.271C234.278 104.11 233.126 99.1335 230.994 94.396C229.115 90.2216 226.133 87.1588 221.962 85.2591C219.411 84.0975 216.726 83.3427 214.024 82.6509C209.419 81.4721 205.034 79.7837 200.928 77.3592C198.394 75.8622 195.828 74.4056 193.203 73.0798C188.262 70.5875 183.107 70.0447 177.797 71.7914C172.917 73.3962 168.531 75.9143 164.552 79.1398C161.073 81.9603 158.138 85.2801 155.654 89.0092C152.702 93.4405 151.532 98.2519 152.355 103.535C152.821 106.523 153.73 109.389 154.707 112.235C156.175 116.507 157.365 120.837 157.884 125.342C158.267 128.689 158.64 132.046 159.235 135.361C160.254 141.049 163.175 145.578 168.026 148.779C173.811 152.594 180.15 154.903 187.051 155.645C192.8 156.264 198.177 155.146 203.195 152.265C205.721 150.815 208.061 149.1 210.316 147.273C213.92 144.352 217.601 141.536 221.403 138.875C223.913 137.117 226.329 135.241 228.397 132.957C230.432 130.71 232.022 128.182 232.986 125.307C233.831 122.79 234.275 120.173 234.55 117.748L234.546 117.75Z" fill="white"/>
<path opacity="0.02" d="M125.953 87.6978C151.894 79.6412 179.339 94.1301 187.333 120.282C195.3 146.353 180.481 173.821 154.234 181.531C128.302 189.15 101.113 174.387 93.4354 148.357C85.8879 122.771 100.177 95.7248 125.953 87.6978ZM152.806 175.745C155.653 174.855 158.203 173.809 160.644 172.507C165.213 170.07 169.319 167.033 172.817 163.192C175.899 159.806 177.522 155.852 177.605 151.27C177.655 148.467 177.279 145.703 176.838 142.95C176.087 138.255 175.891 133.561 176.48 128.829C176.845 125.908 177.161 122.975 177.332 120.039C177.652 114.514 176.098 109.569 172.383 105.393C168.968 101.555 164.913 98.5332 160.37 96.1668C156.398 94.0973 152.184 92.7259 147.775 91.931C142.535 90.9872 137.655 91.8283 133.136 94.686C130.58 96.303 128.312 98.277 126.091 100.306C122.756 103.353 119.257 106.168 115.33 108.437C112.413 110.121 109.481 111.799 106.677 113.664C101.865 116.862 98.8721 121.345 97.8661 127.069C96.6683 133.895 97.0732 140.629 99.1388 147.254C100.859 152.775 104.025 157.263 108.664 160.72C111 162.46 113.505 163.924 116.078 165.266C120.193 167.41 124.241 169.666 128.195 172.094C130.806 173.698 133.489 175.168 136.407 176.156C139.279 177.129 142.231 177.581 145.252 177.321C147.898 177.095 150.475 176.461 152.809 175.748L152.806 175.745Z" fill="white"/>
<path opacity="0.02" d="M123.32 156.483C149.262 148.426 176.707 162.915 184.7 189.068C192.668 215.138 177.849 242.606 151.601 250.316C125.669 257.935 98.48 243.172 90.8026 217.142C83.2551 191.556 97.5447 164.51 123.32 156.483ZM150.173 244.53C153.02 243.64 155.57 242.594 158.011 241.292C162.58 238.856 166.687 235.819 170.184 231.977C173.266 228.592 174.889 224.637 174.972 220.055C175.022 217.252 174.646 214.488 174.205 211.735C173.454 207.04 173.258 202.346 173.848 197.614C174.212 194.693 174.528 191.76 174.699 188.825C175.019 183.299 173.466 178.354 169.75 174.178C166.336 170.34 162.28 167.318 157.737 164.952C153.765 162.883 149.551 161.511 145.142 160.716C139.902 159.772 135.022 160.613 130.503 163.471C127.947 165.088 125.679 167.062 123.458 169.091C120.123 172.139 116.624 174.953 112.697 177.222C109.78 178.906 106.848 180.584 104.045 182.449C99.2322 185.647 96.2393 190.13 95.2333 195.854C94.0355 202.68 94.4404 209.414 96.506 216.039C98.2264 221.56 101.392 226.048 106.031 229.505C108.368 231.246 110.872 232.709 113.445 234.051C117.56 236.195 121.608 238.451 125.562 240.879C128.174 242.483 130.856 243.953 133.775 244.941C136.646 245.914 139.598 246.366 142.619 246.106C145.265 245.88 147.842 245.246 150.176 244.533L150.173 244.53Z" fill="white"/>
<path opacity="0.02" d="M211.947 286.539C223.685 262.043 252.974 251.779 277.582 263.707C302.112 275.599 312.169 305.145 299.967 329.63C287.914 353.822 258.599 363.712 234.296 351.635C210.406 339.764 200.299 310.894 211.947 286.539ZM294.755 326.741C296.039 324.049 297.006 321.468 297.712 318.793C299.034 313.787 299.601 308.711 299.163 303.534C298.778 298.972 296.983 295.093 293.68 291.915C291.66 289.972 289.378 288.368 287.06 286.818C283.107 284.176 279.533 281.127 276.465 277.475C274.572 275.222 272.637 272.996 270.602 270.873C266.769 266.88 262.087 264.656 256.498 264.539C251.362 264.431 246.389 265.349 241.564 267.07C237.346 268.574 233.474 270.73 229.892 273.422C225.637 276.621 222.934 280.77 221.955 286.027C221.402 289 221.307 292.005 221.283 295.014C221.248 299.531 220.932 304.011 219.924 308.432C219.174 311.716 218.411 315.007 217.87 318.33C216.942 324.034 218.192 329.277 221.704 333.908C225.893 339.428 231.105 343.712 237.367 346.704C242.584 349.197 248.027 349.929 253.717 348.88C256.582 348.351 259.358 347.511 262.092 346.537C266.462 344.979 270.87 343.547 275.339 342.299C278.291 341.476 281.193 340.509 283.902 339.042C286.569 337.598 288.908 335.742 290.772 333.351C292.406 331.257 293.694 328.937 294.759 326.741L294.755 326.741Z" fill="white"/>
<path opacity="0.02" d="M408.084 94.0293C393.455 71.1416 400.171 40.8423 423.279 26.2188C446.315 11.6411 476.724 18.6701 491.099 41.945C505.304 64.9397 498.256 95.0643 475.182 109.351C452.502 123.395 422.64 116.765 408.084 94.0293ZM485.897 44.8519C484.286 42.3418 482.603 40.1589 480.702 38.1489C477.144 34.387 473.129 31.2296 468.499 28.8724C464.42 26.7954 460.177 26.2754 455.736 27.4073C453.02 28.1 450.454 29.1935 447.915 30.3464C443.586 32.3125 439.11 33.7428 434.391 34.425C431.478 34.8454 428.566 35.3167 425.689 35.9275C420.276 37.0799 415.918 39.8859 412.872 44.5738C410.074 48.8812 408.232 53.5913 407.151 58.598C406.205 62.976 405.997 67.4024 406.396 71.8653C406.872 77.1681 408.973 81.6519 412.924 85.2548C415.159 87.2918 417.662 88.9571 420.206 90.5627C424.027 92.9737 427.667 95.6039 430.893 98.7907C433.289 101.159 435.682 103.543 438.222 105.754C442.579 109.549 447.694 111.25 453.48 110.707C460.379 110.057 466.767 107.886 472.61 104.142C477.479 101.023 480.971 96.7836 483.078 91.3953C484.139 88.6821 484.889 85.8798 485.502 83.0433C486.482 78.5083 487.587 74.0078 488.883 69.552C489.739 66.6098 490.448 63.6338 490.629 60.5582C490.808 57.5315 490.464 54.565 489.415 51.7205C488.496 49.2286 487.204 46.9108 485.899 44.8482L485.897 44.8519Z" fill="white"/>
<path opacity="0.02" d="M362.591 249.836C347.962 226.948 354.679 196.649 377.787 182.025C400.823 167.448 431.232 174.477 445.607 197.752C459.812 220.746 452.763 250.871 429.69 265.158C407.009 279.202 377.148 272.572 362.591 249.836ZM440.405 200.659C438.794 198.148 437.111 195.966 435.21 193.956C431.652 190.194 427.637 187.036 423.007 184.679C418.928 182.602 414.685 182.082 410.244 183.214C407.527 183.907 404.961 185 402.422 186.153C398.094 188.119 393.618 189.549 388.898 190.232C385.985 190.652 383.074 191.123 380.197 191.734C374.784 192.887 370.425 195.692 367.38 200.38C364.582 204.688 362.74 209.398 361.659 214.405C360.713 218.783 360.505 223.209 360.904 227.672C361.379 232.975 363.481 237.458 367.432 241.061C369.667 243.098 372.17 244.764 374.714 246.369C378.535 248.78 382.175 251.411 385.401 254.597C387.797 256.966 390.19 259.349 392.73 261.56C397.087 265.356 402.201 267.057 407.988 266.513C414.887 265.864 421.275 263.693 427.118 259.949C431.987 256.83 435.479 252.59 437.586 247.202C438.647 244.489 439.397 241.686 440.01 238.85C440.99 234.315 442.095 229.814 443.391 225.359C444.247 222.416 444.956 219.44 445.137 216.365C445.316 213.338 444.972 210.372 443.922 207.527C443.004 205.035 441.712 202.717 440.407 200.655L440.405 200.659Z" fill="white"/>
<path opacity="0.02" d="M402.805 305.13C428.842 297.388 456.11 312.208 463.786 338.455C471.438 364.62 456.288 391.907 429.949 399.298C403.927 406.604 376.919 391.513 369.557 365.392C362.319 339.716 376.934 312.845 402.805 305.13ZM428.592 393.496C431.449 392.64 434.012 391.625 436.468 390.353C441.066 387.972 445.209 384.985 448.753 381.186C451.875 377.838 453.546 373.904 453.684 369.322C453.768 366.52 453.426 363.752 453.018 360.993C452.324 356.29 452.184 351.594 452.832 346.869C453.232 343.953 453.583 341.025 453.79 338.091C454.176 332.57 452.682 327.607 449.017 323.385C445.65 319.507 441.631 316.436 437.117 314.015C433.171 311.898 428.974 310.475 424.574 309.627C419.346 308.62 414.456 309.402 409.903 312.205C407.328 313.791 405.036 315.737 402.791 317.739C399.419 320.746 395.886 323.518 391.932 325.74C388.995 327.388 386.043 329.031 383.217 330.861C378.366 334.002 375.319 338.448 374.244 344.159C372.964 350.97 373.287 357.709 375.273 364.358C376.926 369.899 380.038 374.425 384.635 377.938C386.95 379.707 389.436 381.201 391.993 382.573C396.081 384.767 400.102 387.072 404.027 389.548C406.618 391.183 409.283 392.685 412.189 393.709C415.049 394.716 417.995 395.204 421.019 394.981C423.667 394.786 426.252 394.184 428.594 393.499L428.592 393.496Z" fill="white"/>
<path opacity="0.02" d="M74.9226 310.625C100.959 302.882 128.227 317.702 135.903 343.949C143.556 370.114 128.405 397.401 102.067 404.793C76.0441 412.098 49.0358 397.007 41.6737 370.886C34.4361 345.21 49.0517 318.339 74.9226 310.625ZM100.709 398.99C103.566 398.134 106.129 397.119 108.585 395.847C113.183 393.466 117.326 390.479 120.87 386.68C123.992 383.332 125.663 379.398 125.801 374.816C125.886 372.014 125.543 369.246 125.136 366.488C124.441 361.784 124.302 357.088 124.949 352.363C125.349 349.448 125.7 346.519 125.907 343.585C126.293 338.064 124.8 333.101 121.135 328.88C117.767 325.001 113.748 321.93 109.235 319.509C105.288 317.392 101.091 315.97 96.6912 315.121C91.4633 314.114 86.5736 314.896 82.02 317.699C79.4452 319.285 77.1535 321.232 74.908 323.233C71.536 326.24 68.0032 329.013 64.0496 331.234C61.1118 332.882 58.1604 334.525 55.3341 336.355C50.4835 339.496 47.4366 343.942 46.3614 349.653C45.0812 356.464 45.4047 363.203 47.39 369.852C49.0435 375.393 52.1548 379.919 56.752 383.432C59.0669 385.201 61.5534 386.695 64.1104 388.067C68.1986 390.261 72.2191 392.566 76.144 395.042C78.7355 396.677 81.4004 398.179 84.3063 399.203C87.1661 400.21 90.1124 400.698 93.1359 400.475C95.7845 400.28 98.369 399.678 100.712 398.993L100.709 398.99Z" fill="white"/>
<path opacity="0.02" d="M7.34825 309.034C11.4176 282.177 36.4293 263.804 63.4485 268.022C90.3833 272.228 108.633 297.547 104.118 324.528C99.6589 351.186 74.5124 369.209 47.7409 364.76C21.4253 360.387 3.32452 335.729 7.34825 309.034ZM98.2887 323.288C98.7299 320.338 98.9014 317.587 98.7952 314.823C98.5962 309.649 97.6553 304.629 95.7245 299.805C94.023 295.555 91.1735 292.37 87.0862 290.296C84.5861 289.028 81.9352 288.16 79.2653 287.355C74.7133 285.983 70.4038 284.111 66.4033 281.516C63.9347 279.913 61.4333 278.35 58.8666 276.914C54.0347 274.216 48.9071 273.456 43.5278 274.977C38.5849 276.375 34.0966 278.706 29.9853 281.761C26.3901 284.432 23.3175 287.625 20.6783 291.246C17.5429 295.549 16.1705 300.307 16.77 305.62C17.11 308.625 17.8966 311.527 18.7531 314.411C20.0399 318.742 21.0458 323.118 21.3742 327.641C21.6162 331.001 21.8472 334.371 22.3017 337.707C23.0801 343.433 25.8077 348.082 30.5194 351.485C36.1383 355.541 42.3745 358.115 49.2371 359.147C54.955 360.007 60.3747 359.117 65.5097 356.451C68.095 355.108 70.505 353.494 72.8347 351.763C76.5593 348.997 80.3556 346.339 84.2658 343.84C86.8478 342.19 89.3411 340.417 91.5036 338.223C93.632 336.064 95.3267 333.605 96.411 330.773C97.3616 328.294 97.9158 325.698 98.2927 323.287L98.2887 323.288Z" fill="white"/>
<path opacity="0.02" d="M174.801 427.702C178.871 400.845 203.882 382.472 230.902 386.69C257.836 390.896 276.086 416.215 271.571 443.196C267.112 469.854 241.966 487.877 215.194 483.428C188.878 479.055 170.778 454.397 174.801 427.702ZM265.742 441.956C266.183 439.006 266.355 436.255 266.248 433.491C266.049 428.317 265.108 423.297 263.178 418.473C261.476 414.223 258.627 411.038 254.539 408.964C252.039 407.696 249.388 406.828 246.718 406.023C242.166 404.651 237.857 402.779 233.856 400.184C231.388 398.581 228.886 397.018 226.32 395.582C221.488 392.884 216.36 392.124 210.981 393.645C206.038 395.043 201.55 397.374 197.438 400.429C193.843 403.1 190.771 406.293 188.131 409.914C184.996 414.217 183.624 418.975 184.223 424.288C184.563 427.293 185.35 430.195 186.206 433.079C187.493 437.41 188.499 441.786 188.827 446.309C189.069 449.669 189.3 453.039 189.755 456.375C190.533 462.101 193.261 466.75 197.973 470.153C203.591 474.209 209.828 476.782 216.69 477.815C222.408 478.675 227.828 477.785 232.963 475.119C235.548 473.776 237.958 472.162 240.288 470.431C244.012 467.665 247.809 465.007 251.719 462.508C254.301 460.858 256.794 459.085 258.957 456.891C261.085 454.731 262.78 452.273 263.864 449.441C264.815 446.962 265.369 444.366 265.746 441.955L265.742 441.956Z" fill="white"/>
<path opacity="0.02" d="M297.393 475.941C270.856 481.741 244.756 464.95 239.037 438.209C233.336 411.55 250.458 385.455 277.27 380.027C303.76 374.662 329.582 391.704 334.997 418.297C340.321 444.436 323.762 470.156 297.393 475.941ZM278.196 385.914C275.283 386.557 272.653 387.38 270.109 388.467C265.348 390.503 260.996 393.176 257.182 396.704C253.821 399.812 251.864 403.612 251.388 408.171C251.098 410.959 251.235 413.745 251.438 416.526C251.784 421.267 251.576 425.961 250.582 430.625C249.968 433.504 249.402 436.399 248.979 439.309C248.186 444.786 249.31 449.847 252.654 454.327C255.726 458.443 259.507 461.802 263.83 464.549C267.61 466.952 271.69 468.68 276.015 469.851C281.155 471.241 286.089 470.821 290.837 468.362C293.522 466.97 295.951 465.198 298.338 463.368C301.922 460.618 305.65 458.114 309.757 456.19C312.808 454.763 315.873 453.343 318.826 451.725C323.895 448.952 327.262 444.742 328.755 439.126C330.535 432.428 330.709 425.684 329.22 418.906C327.98 413.258 325.211 408.515 320.885 404.672C318.707 402.738 316.338 401.064 313.889 399.507C309.974 397.017 306.134 394.422 302.403 391.664C299.939 389.842 297.392 388.147 294.569 386.912C291.792 385.696 288.889 384.993 285.858 384.992C283.202 384.991 280.58 385.401 278.193 385.911L278.196 385.914Z" fill="white"/>
<path opacity="0.02" d="M320.617 423.453C347.774 424.051 369.198 446.505 368.473 473.842C367.749 501.093 344.975 522.434 317.638 521.41C290.628 520.4 269.535 497.767 270.52 470.646C271.488 443.988 293.627 422.879 320.617 423.453ZM318.121 515.47C321.103 515.53 323.853 515.348 326.582 514.889C331.688 514.029 336.546 512.453 341.082 509.921C345.08 507.689 347.874 504.455 349.408 500.136C350.346 497.494 350.867 494.754 351.323 492.003C352.101 487.313 353.406 482.799 355.468 478.5C356.742 475.846 357.972 473.165 359.067 470.436C361.125 465.298 361.222 460.116 359.025 454.975C357.006 450.252 354.12 446.099 350.564 442.413C347.454 439.189 343.894 436.55 339.965 434.396C335.296 431.838 330.402 431.085 325.209 432.36C322.272 433.082 319.495 434.234 316.744 435.452C312.614 437.283 308.402 438.841 303.958 439.745C300.657 440.415 297.345 441.076 294.094 441.954C288.515 443.459 284.253 446.759 281.482 451.867C278.178 457.959 276.424 464.474 276.279 471.412C276.157 477.193 277.734 482.454 281.035 487.206C282.698 489.598 284.608 491.781 286.622 493.87C289.842 497.21 292.965 500.635 295.943 504.193C297.91 506.543 299.987 508.788 302.441 510.652C304.855 512.487 307.51 513.853 310.457 514.566C313.038 515.191 315.683 515.409 318.123 515.474L318.121 515.47Z" fill="white"/>
</svg>
