<svg width="22" height="16" viewBox="0 0 22 16" fill="none" xmlns="http://www.w3.org/2000/svg">
<path d="M19.4582 0.845556C19.1681 0.542142 18.6907 0.528757 18.3873 0.818784C18.0839 1.10881 18.0705 1.59516 18.3605 1.8941L18.9763 2.54556H15.8484C15.1702 2.54556 14.5054 2.81774 14.0324 3.30411L6.13935 11.3489C5.94749 11.5452 5.67975 11.6479 5.40757 11.6479H1.19995C0.780537 11.6479 0.441406 11.987 0.441406 12.4064C0.441406 12.8258 0.780516 13.165 1.19995 13.165H5.41205C6.09027 13.165 6.75511 12.8928 7.22809 12.4064L15.1171 4.3616C15.3089 4.16528 15.5767 4.06265 15.8488 4.06265H18.9767L18.3609 4.70073C18.0709 5.00414 18.0843 5.48159 18.3877 5.7716C18.5349 5.90992 18.7223 5.98132 18.9098 5.98132C19.1105 5.98132 19.3113 5.901 19.4586 5.74483L21.2969 3.81726C21.578 3.52277 21.578 3.0632 21.2969 2.7687L19.4582 0.845556Z" fill="white"/>
<path d="M1.19991 4.06341H5.42099C5.69317 4.06341 5.95198 4.16603 6.14384 4.3579L8.76301 6.96814C8.91026 7.11538 9.10658 7.18678 9.29845 7.18678C9.49477 7.18678 9.68664 7.11092 9.83388 6.96368C10.1284 6.66918 10.1284 6.1873 9.83388 5.8928L7.21471 3.28701C6.73284 2.80959 6.09476 2.55078 5.41654 2.55078H1.19995C0.780537 2.55078 0.441406 2.88989 0.441406 3.30933C0.441406 3.72876 0.780516 4.06338 1.19995 4.06338L1.19991 4.06341Z" fill="white"/>
<path d="M19.4583 9.96504C19.1683 9.66162 18.6909 9.64824 18.3874 9.93826C18.084 10.2283 18.0706 10.7013 18.3607 11.0047L18.9764 11.6428H15.8352C15.563 11.6428 15.3042 11.5401 15.1123 11.3483L12.4441 8.69785C12.1496 8.40336 11.6677 8.40336 11.3732 8.70232C11.0787 8.99681 11.0787 9.47869 11.3732 9.77764L14.037 12.4325C14.5189 12.9099 15.157 13.1687 15.8352 13.1687H18.9764L18.3607 13.8202C18.0706 14.1236 18.084 14.6055 18.3874 14.8955C18.5347 15.0338 18.7221 15.1052 18.9095 15.1052C19.1103 15.1052 19.3111 15.0249 19.4583 14.8687L21.2966 12.9412C21.5777 12.6467 21.5777 12.1871 21.2966 11.8926L19.4583 9.96504Z" fill="white"/>
</svg>
