<svg width="27" height="27" viewBox="0 0 27 27" fill="none" xmlns="http://www.w3.org/2000/svg">
<path d="M12.1331 0.998471C12.1468 0.998471 12.1602 0.997807 12.1739 0.996479C12.8398 0.939594 13.5284 0.937378 14.2016 0.989838C14.4579 1.01463 14.692 0.81409 14.7121 0.552242C14.7324 0.290173 14.5368 0.0610818 14.2752 0.0409436C13.5512 -0.0161621 12.81 -0.0132852 12.0933 0.0480265C11.8319 0.0699395 11.6376 0.300576 11.6602 0.562424C11.6814 0.810991 11.8889 0.998471 12.1331 0.998471ZM0.565844 11.6439C0.591479 11.6483 0.617557 11.6503 0.642751 11.6503C0.871482 11.6503 1.07303 11.4847 1.11126 11.2508C1.21999 10.5832 1.38529 9.92092 1.60275 9.28283C1.68761 9.03405 1.55501 8.76334 1.30617 8.67857C1.05645 8.59358 0.787497 8.72682 0.702862 8.97561C0.46883 9.66419 0.290264 10.3783 0.173138 11.0978C0.130929 11.357 0.30662 11.6016 0.565844 11.6439ZM1.76935 7.61457C1.84117 7.65331 1.91852 7.67168 1.99455 7.67168C2.16339 7.67168 2.32714 7.58115 2.41311 7.42156C2.73377 6.82591 3.10592 6.25355 3.5192 5.72035C3.68008 5.51273 3.64273 5.2137 3.43522 5.05279C3.22792 4.89121 2.92892 4.92906 2.76871 5.1369C2.32319 5.71193 1.92185 6.32837 1.57646 6.97009C1.45204 7.20117 1.53819 7.48974 1.76935 7.61457ZM4.56605 4.34978C4.68164 4.34978 4.79743 4.30795 4.88915 4.22318C5.38461 3.76345 5.92163 3.34223 6.48364 2.9717C6.70287 2.82739 6.76364 2.5319 6.61955 2.31253C6.47546 2.09274 6.18043 2.03232 5.96142 2.17641C5.35545 2.57549 4.77754 3.02948 4.24297 3.52461C4.05071 3.70323 4.03899 4.00448 4.21733 4.19726C4.31103 4.29864 4.43831 4.34978 4.56605 4.34978ZM8.06971 2.03983C8.13402 2.03983 8.19921 2.02678 8.26175 1.99911C8.87853 1.72553 9.52229 1.50198 10.176 1.33444C10.4304 1.26937 10.5835 1.01017 10.5185 0.755398C10.4534 0.500633 10.195 0.345692 9.94041 0.412317C9.23612 0.59249 8.54195 0.833752 7.87697 1.1286C7.63719 1.23529 7.52846 1.5164 7.63454 1.75655C7.71321 1.93428 7.88717 2.03983 8.06971 2.03983ZM24.8254 9.20778C25.0468 9.84616 25.2163 10.5073 25.3297 11.1733C25.369 11.4053 25.5701 11.5693 25.7975 11.5693C25.824 11.5693 25.8508 11.5671 25.878 11.5627C26.1365 11.5186 26.3104 11.2729 26.2667 11.0137C26.1447 10.2959 25.9619 9.58321 25.7233 8.89571C25.6369 8.64715 25.3666 8.51567 25.1184 8.60221C24.8703 8.68831 24.7394 8.95919 24.8254 9.20778ZM16.2012 1.31567C16.8551 1.4788 17.5011 1.69793 18.1205 1.96799C18.1824 1.99455 18.2467 2.00738 18.3099 2.00738C18.4933 2.00738 18.6681 1.90048 18.7461 1.72141C18.8507 1.48015 18.7402 1.19971 18.4999 1.09477C17.8323 0.804143 17.136 0.567748 16.4312 0.39157C16.1762 0.328707 15.9185 0.483206 15.8553 0.738635C15.7915 0.993621 15.9464 1.2519 16.2012 1.31567ZM24.0039 7.35432C24.0903 7.51236 24.2532 7.60178 24.4211 7.60178C24.4981 7.60178 24.5763 7.58296 24.649 7.54335C24.8793 7.41696 24.9639 7.12767 24.8382 6.89727C24.4897 6.2598 24.0854 5.6458 23.6355 5.07208C23.4733 4.86512 23.1752 4.82926 22.9683 4.99173C22.7621 5.15419 22.7259 5.45344 22.8881 5.65996C23.3053 6.19295 23.6806 6.76292 24.0039 7.35432ZM19.9056 2.92945C20.4711 3.29733 21.0103 3.71544 21.5089 4.17186C21.6002 4.25553 21.7149 4.29692 21.8298 4.29692C21.9584 4.29692 22.087 4.2449 22.1803 4.14242C22.3578 3.94852 22.3445 3.64705 22.1505 3.46999C21.6134 2.97817 21.0324 2.52796 20.4234 2.13154C20.2033 1.98833 19.9089 2.05053 19.766 2.2712C19.6232 2.49144 19.6857 2.78625 19.9056 2.92945ZM23.5854 20.7139C23.3787 20.5528 23.0797 20.5893 22.9184 20.7971C22.5041 21.3299 22.0422 21.8328 21.5456 22.2914C21.3529 22.4698 21.3409 22.7708 21.5186 22.9641C21.6123 23.0657 21.7398 23.117 21.868 23.117C21.9834 23.117 22.0989 23.0752 22.1904 22.9911C22.7248 22.497 23.222 21.9556 23.6684 21.3823C23.8296 21.1747 23.7927 20.8757 23.5854 20.7139ZM16.2522 25.1682C15.6003 25.3335 14.928 25.4462 14.2538 25.502C13.9923 25.5234 13.7978 25.7536 13.8195 26.0157C13.84 26.2643 14.048 26.4524 14.2924 26.4524C14.3057 26.4524 14.3189 26.4517 14.3324 26.4508C15.0586 26.3906 15.7831 26.2696 16.4862 26.0909C16.7406 26.0263 16.8942 25.7673 16.8299 25.5126C16.7656 25.2578 16.5072 25.104 16.2522 25.1682ZM25.4467 16.9434C25.1976 16.8571 24.928 16.9904 24.8431 17.2396C24.6246 17.8786 24.3501 18.5037 24.029 19.0982C23.9034 19.3295 23.9894 19.6184 24.2203 19.7435C24.2926 19.7824 24.37 19.8012 24.4466 19.8012C24.6153 19.8012 24.7786 19.7111 24.8645 19.5522C25.2115 18.9116 25.5068 18.2372 25.7426 17.5486C25.8274 17.2996 25.6953 17.0285 25.4467 16.9434ZM1.12022 15.298C1.00861 14.6342 0.952039 13.9535 0.950494 13.2752C0.949831 13.0124 0.737236 12.8002 0.475359 12.8002C0.212819 12.8008 -0.000660378 13.0142 1.54309e-06 13.2769C0.00154846 14.0078 0.0629858 14.7404 0.182765 15.4554C0.22166 15.688 0.423207 15.8527 0.651049 15.8527C0.677347 15.8527 0.703646 15.8505 0.730163 15.846C0.989167 15.8024 1.16376 15.5567 1.12022 15.298ZM25.979 12.7178C25.7167 12.7178 25.5039 12.931 25.5039 13.1937V13.2484C25.5039 13.9268 25.4482 14.6074 25.3388 15.2717C25.2957 15.5308 25.471 15.7761 25.7298 15.819C25.7561 15.8235 25.7824 15.8257 25.808 15.8257C26.0365 15.8257 26.2376 15.6603 26.2763 15.4275C26.3945 14.7119 26.4546 13.9792 26.4546 13.2488V13.1942C26.4544 12.931 26.2414 12.7178 25.979 12.7178ZM19.9482 23.54C19.3829 23.9112 18.7842 24.2368 18.1681 24.5084C17.9279 24.6144 17.8187 24.8953 17.9245 25.1361C18.0028 25.3145 18.1771 25.4205 18.3599 25.4205C18.4235 25.4205 18.4885 25.4075 18.5513 25.3802C19.2154 25.0876 19.8607 24.7368 20.4695 24.3368C20.6889 24.1925 20.7506 23.8972 20.6067 23.6777C20.4624 23.4572 20.1681 23.3964 19.9482 23.54ZM12.2269 25.5042C11.5527 25.4495 10.8802 25.3388 10.2276 25.1748C9.97409 25.1124 9.71465 25.2658 9.65102 25.5208C9.58738 25.776 9.74163 26.0343 9.99644 26.0982C10.6994 26.2751 11.4243 26.3946 12.1511 26.4531C12.1642 26.4539 12.1768 26.4546 12.1898 26.4546C12.4347 26.4546 12.6428 26.2658 12.6627 26.0168C12.6835 25.7547 12.4886 25.5252 12.2269 25.5042ZM3.55066 20.8162C3.38867 20.609 3.09055 20.5723 2.8837 20.7343C2.67707 20.8961 2.64016 21.1951 2.80193 21.4023C3.249 21.9758 3.74735 22.5158 4.28305 23.0081C4.37432 23.0922 4.48924 23.1339 4.6046 23.1339C4.73299 23.1339 4.86117 23.0821 4.95443 22.98C5.13211 22.7866 5.11952 22.4851 4.92592 22.3076C4.42891 21.8497 3.96614 21.348 3.55066 20.8162ZM1.62005 17.264C1.53409 17.0155 1.26425 16.8833 1.01584 16.9692C0.767662 17.0553 0.635951 17.3258 0.721474 17.5744C0.95838 18.2617 1.25495 18.9343 1.60279 19.5747C1.68898 19.7329 1.85207 19.8228 2.02025 19.8228C2.09716 19.8228 2.17495 19.804 2.24743 19.7648C2.47815 19.6391 2.56301 19.3498 2.43749 19.1191C2.11484 18.5257 1.83996 17.9015 1.62005 17.264ZM8.30998 24.5187C7.69253 24.2478 7.0925 23.923 6.52659 23.5534C6.30736 23.4102 6.01234 23.4715 5.86913 23.692C5.72571 23.9118 5.78737 24.2071 6.00748 24.3505C6.61678 24.7491 7.26337 25.0986 7.92858 25.3905C7.99046 25.4178 8.05498 25.4306 8.11907 25.4306C8.30228 25.4306 8.47686 25.3244 8.55465 25.1457C8.65962 24.9045 8.54998 24.624 8.30998 24.5187Z" fill="white"/>
<path d="M7.54735 13.9041C7.54735 17.1907 10.2117 19.855 13.4983 19.855C16.7849 19.855 19.4492 17.1907 19.4492 13.9041C19.4492 10.6174 16.7849 7.95312 13.4983 7.95312" stroke="white" stroke-linecap="round"/>
<path d="M12.9034 7.95325L15.8789 6.16797" stroke="white" stroke-linecap="round"/>
<path d="M15.1583 10.5896L12.9023 7.95312" stroke="white" stroke-linecap="round"/>
</svg>
