<?xml version="1.0" encoding="UTF-8"?><svg id="Calque_2" xmlns="http://www.w3.org/2000/svg" viewBox="0 0 32.22 32.22"><defs><style>.cls-1{stroke-width:.57px;}.cls-1,.cls-2{fill:none;stroke:#fff;}.cls-2{stroke-linecap:round;stroke-width:1.14px;}</style></defs><g id="Calque_1-2"><path class="cls-1" d="m29.99,10.5c.12.31,0,.79-.54,1.48-.53.66-1.39,1.43-2.54,2.24-2.29,1.63-5.65,3.42-9.54,5-3.89,1.57-7.56,2.62-10.34,3.04-1.39.21-2.54.26-3.38.15-.87-.11-1.29-.38-1.41-.69-.12-.31,0-.79.54-1.48.53-.66,1.39-1.43,2.54-2.24,2.29-1.63,5.65-3.42,9.54-5,3.89-1.57,7.56-2.62,10.34-3.04,1.39-.21,2.54-.26,3.38-.15.87.11,1.29.38,1.41.69h0Z"/><path class="cls-2" d="m13.9,16.22l1.48-2.16,2.57.53"/><path class="cls-2" d="m15.38,14.05l-1.63-4.04"/></g></svg>