<svg width="60" height="61" viewBox="0 0 60 61" fill="none" xmlns="http://www.w3.org/2000/svg">
<path fill-rule="evenodd" clip-rule="evenodd" d="M31.9263 33.682L37.2495 43.5504C37.481 43.9796 37.4975 44.5239 37.3987 44.8543L31.4789 54.4174C31.38 54.7478 30.9508 54.9794 30.4057 54.9963L19.1628 54.691C18.6178 54.7079 18.2874 54.609 18.0562 54.1805L12.7331 44.3121C12.5016 43.8829 12.6004 43.5525 12.9143 43.107L18.5037 33.4451C18.8172 32.9989 19.2457 32.7677 19.5768 32.8662L30.8198 33.1715C31.3648 33.1546 31.6952 33.2535 31.9263 33.682ZM25.6761 43.1462L35.2847 43.5019L30.5401 34.7059L20.8329 34.6795L25.6765 43.1451L25.6757 43.1455L25.6761 43.1462ZM35.1209 45.2527L25.5122 44.8971L20.7468 53.0063L30.0254 53.2638L35.1209 45.2527ZM19.0959 52.5123L24.1741 43.9573L19.3306 35.4917L14.3505 43.7167L19.0952 52.5127L19.0959 52.5123Z" fill="white"/>
<path fill-rule="evenodd" clip-rule="evenodd" d="M29.3304 41.6039C28.5661 40.9851 28.4696 40.1771 29.1154 39.799C29.7613 39.4208 30.9046 39.6168 31.6689 40.2356C32.4332 40.8545 32.5296 41.6625 31.8834 42.0399C31.2376 42.418 30.0943 42.2221 29.33 41.6032" fill="white"/>
<path fill-rule="evenodd" clip-rule="evenodd" d="M23.8224 37.4589C23.0989 36.8348 23.016 36.0381 23.6368 35.6791C24.2576 35.32 25.3476 35.5344 26.0711 36.1586C26.7946 36.7827 26.8782 37.579 26.2574 37.9381C25.6366 38.2971 24.5465 38.0827 23.8224 37.4589Z" fill="white"/>
<path fill-rule="evenodd" clip-rule="evenodd" d="M28.0727 46.4381C28.0981 47.0539 27.4903 47.7956 26.7164 48.0949C25.9425 48.3943 25.2941 48.1369 25.2688 47.5211C25.2435 46.9053 25.8513 46.1637 26.6252 45.8643C27.399 45.5649 28.0474 45.8224 28.0727 46.4381Z" fill="white"/>
<path fill-rule="evenodd" clip-rule="evenodd" d="M25.6115 50.6505C25.6369 51.2663 25.0294 52.0086 24.2552 52.3073C23.4813 52.6066 22.8333 52.3499 22.808 51.7342C22.7826 51.1184 23.3901 50.376 24.1643 50.0774C24.9382 49.778 25.5862 50.0347 25.6115 50.6505Z" fill="white"/>
<path fill-rule="evenodd" clip-rule="evenodd" d="M32.7678 46.5607C32.7931 47.1765 32.1857 47.9188 31.4114 48.2174C30.6375 48.5168 29.9896 48.2601 29.9642 47.6443C29.9389 47.0285 30.5463 46.2862 31.3206 45.9875C32.0945 45.6882 32.7424 45.9449 32.7678 46.5607Z" fill="white"/>
<path fill-rule="evenodd" clip-rule="evenodd" d="M30.2993 50.7741C30.3246 51.3899 29.7172 52.1322 28.9429 52.4308C28.1687 52.7295 27.5207 52.4728 27.4954 51.857C27.47 51.2412 28.0779 50.4996 28.8517 50.2002C29.6256 49.9009 30.2736 50.1576 30.2989 50.7734" fill="white"/>
<path fill-rule="evenodd" clip-rule="evenodd" d="M18.5465 45.9722C19.2464 46.6285 20.0827 46.4052 20.4148 45.4748C20.7466 44.5437 20.4489 43.2575 19.749 42.6012C19.0494 41.9455 18.2128 42.1681 17.881 43.0993C17.5493 44.0304 17.847 45.3165 18.5469 45.9729" fill="white"/>
<path fill-rule="evenodd" clip-rule="evenodd" d="M45.7603 19.2917L38.3866 27.7005C38.2878 28.0309 37.8585 28.2624 37.3142 28.2789L26.4502 26.1077C25.7894 25.91 25.5582 25.4815 25.4421 25.2662L21.8352 14.472C21.7194 14.2573 21.7025 13.7123 22.0164 13.2669L29.3894 4.85852C29.8186 4.62698 30.0332 4.51121 30.5775 4.49468L41.4416 6.66587C42.1024 6.86358 42.2181 7.0782 42.4497 7.50745L46.1554 17.9712C46.1723 18.5163 46.1888 19.0606 45.7603 19.2917ZM34.6647 16.6913L37.8908 25.7523L44.4229 18.3516L41.1968 9.29062L34.6647 16.6913ZM36.2734 26.3476L33.2619 17.1709L23.8341 15.6094L26.9444 24.4558L36.2734 26.3476ZM23.8826 13.6447L33.5416 15.6347L40.0737 8.23403L30.4147 6.24401L23.8826 13.6447Z" fill="white"/>
<path fill-rule="evenodd" clip-rule="evenodd" d="M37.7519 21.323C38.0173 20.5532 38.6178 20.2497 39.0944 20.6453C39.5709 21.041 39.7426 21.985 39.4773 22.7548C39.2119 23.5246 38.611 23.8274 38.1341 23.4329C37.6576 23.0372 37.4858 22.0932 37.7512 21.3233" fill="white"/>
<path fill-rule="evenodd" clip-rule="evenodd" d="M39.7475 12.4402C40.0284 11.701 40.6246 11.4101 41.0795 11.7914C41.5343 12.1727 41.676 13.0818 41.3958 13.8206C41.1149 14.5598 40.519 14.8496 40.0634 14.4687C39.6086 14.0873 39.4672 13.1789 39.7471 12.4395" fill="white"/>
<path fill-rule="evenodd" clip-rule="evenodd" d="M32.659 20.0872C32.0888 20.3213 31.1841 20.0041 30.6386 19.3788C30.0931 18.7536 30.1132 18.0565 30.6833 17.8225C31.2534 17.5884 32.1581 17.9056 32.7037 18.5308C33.2492 19.1561 33.2291 19.8531 32.6597 20.0868" fill="white"/>
<path fill-rule="evenodd" clip-rule="evenodd" d="M27.8543 19.2142C27.2841 19.4482 26.3795 19.1311 25.8339 18.5058C25.2884 17.8805 25.3085 17.1835 25.8779 16.9498C26.448 16.7157 27.3527 17.0329 27.8983 17.6582C28.4438 18.2835 28.4237 18.9805 27.8536 19.2146" fill="white"/>
<path fill-rule="evenodd" clip-rule="evenodd" d="M34.1433 24.5345C33.5732 24.7686 32.6685 24.4514 32.123 23.8261C31.5774 23.2008 31.5975 22.5038 32.1669 22.2701C32.7371 22.036 33.6418 22.3532 34.1873 22.9785C34.7329 23.6038 34.7128 24.3008 34.1433 24.5345Z" fill="white"/>
<path fill-rule="evenodd" clip-rule="evenodd" d="M29.3387 23.6614C28.7686 23.8955 27.8639 23.5783 27.3183 22.953C26.7728 22.3278 26.7922 21.6311 27.3623 21.397C27.9325 21.163 28.8371 21.4801 29.3827 22.1054C29.9282 22.7307 29.9088 23.4273 29.3387 23.6614Z" fill="white"/>
<path fill-rule="evenodd" clip-rule="evenodd" d="M38.8655 16.7408C39.1453 16.0014 39.7419 15.7112 40.1975 16.0921C40.6524 16.4734 40.7941 17.3825 40.5131 18.1217C40.2329 18.8604 39.6363 19.1506 39.1807 18.7697C38.7259 18.3884 38.5846 17.48 38.8651 16.7401" fill="white"/>
<path fill-rule="evenodd" clip-rule="evenodd" d="M25.6953 12.4797C25.4003 13.0981 25.7675 13.6253 26.515 13.6563C27.2622 13.6884 28.1063 13.2125 28.4013 12.5941C28.6955 11.9761 28.3284 11.4489 27.5816 11.4175C26.8341 11.3866 25.9895 11.8617 25.6953 12.4797Z" fill="white"/>
<path fill-rule="evenodd" clip-rule="evenodd" d="M31.7267 13.4293C31.4318 14.0477 31.7985 14.5742 32.5464 14.6059C33.2932 14.6372 34.1374 14.1614 34.4324 13.543C34.7266 12.925 34.3599 12.3985 33.6127 12.3664C32.8652 12.3354 32.021 12.8113 31.7267 13.4293Z" fill="white"/>
<path fill-rule="evenodd" clip-rule="evenodd" d="M35.5463 9.19277C35.252 9.81079 35.6188 10.3373 36.366 10.3694C37.1131 10.4015 37.958 9.92525 38.2523 9.30723C38.5465 8.68921 38.1805 8.16235 37.4326 8.13064C36.6858 8.09927 35.8405 8.57475 35.5467 9.19349" fill="white"/>
<path fill-rule="evenodd" clip-rule="evenodd" d="M29.6304 7.96271C29.3222 8.55663 29.6684 9.04493 30.4035 9.05287C31.1378 9.06119 31.9828 8.58681 32.2909 7.99289C32.5984 7.39936 32.2522 6.91106 31.5179 6.90273C30.7828 6.8948 29.9378 7.36917 29.6304 7.96271Z" fill="white"/>
<path fill-rule="evenodd" clip-rule="evenodd" d="M30.6403 10.4706C30.346 11.0886 30.7128 11.6151 31.4599 11.6472C32.2067 11.6785 33.0517 11.2023 33.3459 10.5843C33.6401 9.96629 33.2734 9.43982 32.5262 9.40772C31.7794 9.37635 30.9345 9.85256 30.6403 10.4706Z" fill="white"/>
</svg>
