<svg width="22" height="22" viewBox="0 0 22 22" fill="none" xmlns="http://www.w3.org/2000/svg">
<path d="M13.9393 11.397L11.3941 13.9457L11.3943 7.13416C11.3943 6.91567 11.2173 6.73841 10.9991 6.73841C10.781 6.73841 10.604 6.91567 10.604 7.13416L10.6038 13.9438L8.05975 11.3963C7.90538 11.2417 7.65525 11.2417 7.50087 11.3963C7.34649 11.5509 7.3465 11.8014 7.50087 11.956L10.7147 15.1743C10.7529 15.2139 10.7987 15.2459 10.8509 15.2669C10.8516 15.2671 10.8525 15.2675 10.8532 15.2677C10.8986 15.2855 10.9473 15.2962 10.9992 15.2962H10.9999H11.0001C11.0003 15.2962 11.0008 15.296 11.0012 15.296C11.0508 15.2958 11.0979 15.2857 11.1414 15.2686C11.1449 15.2673 11.148 15.2667 11.1512 15.2655C11.1975 15.2461 11.2388 15.218 11.2745 15.1837C11.2761 15.1821 11.2782 15.1817 11.2798 15.18L14.4986 11.9568C14.6529 11.8022 14.6529 11.5517 14.4986 11.397C14.3444 11.242 14.0937 11.2426 13.9393 11.397ZM10.09 0.830341C10.1014 0.830341 10.1126 0.829789 10.124 0.828685C10.6778 0.781379 11.2504 0.779536 11.8102 0.823162C12.0234 0.843778 12.218 0.677008 12.2347 0.459252C12.2517 0.241312 12.089 0.0507964 11.8714 0.0340492C11.2693 -0.0134406 10.653 -0.0110482 10.057 0.0399395C9.83954 0.0581626 9.67799 0.249963 9.69674 0.46772C9.71439 0.674431 9.88693 0.830341 10.09 0.830341ZM0.470563 9.68319C0.491882 9.68687 0.513568 9.68853 0.53452 9.68853C0.724736 9.68853 0.892345 9.55084 0.924135 9.35628C1.01456 8.80113 1.15203 8.25037 1.33287 7.71973C1.40344 7.51283 1.29317 7.28771 1.08623 7.21721C0.878555 7.14653 0.654893 7.25734 0.584509 7.46424C0.389885 8.03687 0.241388 8.6307 0.143984 9.22911C0.108882 9.44465 0.254989 9.64803 0.470563 9.68319ZM1.47142 6.33238C1.53114 6.36459 1.59547 6.37987 1.65869 6.37987C1.7991 6.37987 1.93528 6.30458 2.00677 6.17187C2.27344 5.67652 2.58292 5.20054 2.92661 4.75712C3.0604 4.58446 3.02934 4.33578 2.85677 4.20197C2.68438 4.0676 2.43573 4.09907 2.3025 4.27192C1.93199 4.75011 1.59823 5.26276 1.31101 5.79642C1.20754 5.98858 1.27921 6.22862 1.47145 6.33243L1.47142 6.33238ZM3.79719 3.61734C3.89331 3.61734 3.98961 3.58255 4.06588 3.51205C4.47791 3.12973 4.9245 2.77944 5.39188 2.47131C5.57419 2.35129 5.62473 2.10556 5.5049 1.92313C5.38508 1.74035 5.13973 1.6901 4.95759 1.80993C4.45366 2.14181 3.97307 2.51936 3.52851 2.93111C3.36862 3.07965 3.35888 3.33018 3.50719 3.4905C3.58511 3.57481 3.69096 3.61734 3.79719 3.61734ZM6.71088 1.69635C6.76436 1.69635 6.81857 1.68549 6.87058 1.66248C7.3835 1.43497 7.91886 1.24906 8.4625 1.10974C8.67403 1.05563 8.80139 0.840074 8.74736 0.628199C8.69315 0.416333 8.4783 0.287482 8.26658 0.342888C7.68088 0.492723 7.1036 0.693359 6.55059 0.93856C6.35119 1.02728 6.26077 1.26105 6.34898 1.46077C6.41441 1.60858 6.55907 1.69635 6.71088 1.69635ZM20.6451 7.65731C20.8293 8.18819 20.9702 8.73801 21.0645 9.29189C21.0972 9.4848 21.2644 9.62119 21.4536 9.62119C21.4756 9.62119 21.4978 9.61935 21.5205 9.61567C21.7355 9.57904 21.8801 9.37472 21.8437 9.15917C21.7423 8.56223 21.5903 7.96953 21.3918 7.39779C21.3199 7.19108 21.0952 7.08174 20.8888 7.15371C20.6824 7.22532 20.5736 7.45062 20.6451 7.65736L20.6451 7.65731ZM13.4731 1.09413C14.0169 1.22979 14.5541 1.41202 15.0692 1.6366C15.1207 1.65869 15.1742 1.66937 15.2268 1.66937C15.3793 1.66937 15.5247 1.58046 15.5895 1.43155C15.6765 1.23091 15.5846 0.997692 15.3848 0.910421C14.8296 0.668736 14.2505 0.472147 13.6644 0.325635C13.4524 0.273357 13.2381 0.401841 13.1855 0.614258C13.1324 0.826308 13.2612 1.0411 13.4731 1.09413ZM19.962 6.11595C20.0338 6.24737 20.1693 6.32174 20.3089 6.32174C20.3729 6.32174 20.438 6.30609 20.4984 6.27315C20.6899 6.16804 20.7603 5.92746 20.6557 5.73586C20.3659 5.20573 20.0298 4.69512 19.6556 4.218C19.5207 4.0459 19.2728 4.01608 19.1008 4.15119C18.9293 4.28629 18.8991 4.53516 19.034 4.7069C19.381 5.15014 19.6931 5.62413 19.962 6.11595ZM16.5538 2.43617C17.0241 2.7421 17.4725 3.0898 17.8871 3.46937C17.963 3.53895 18.0584 3.57337 18.1539 3.57337C18.2609 3.57337 18.3679 3.53012 18.4454 3.44489C18.593 3.28364 18.582 3.03294 18.4206 2.88569C17.974 2.47668 17.4909 2.10228 16.9844 1.77262C16.8013 1.65352 16.5565 1.70525 16.4376 1.88876C16.3189 2.07191 16.3709 2.31709 16.5538 2.43617ZM19.6139 17.226C19.4421 17.0919 19.1934 17.1223 19.0593 17.2952C18.7147 17.7382 18.3306 18.1564 17.9176 18.5378C17.7573 18.6862 17.7474 18.9365 17.8952 19.0972C17.9731 19.1817 18.0791 19.2244 18.1857 19.2244C18.2817 19.2244 18.3778 19.1896 18.4539 19.1197C18.8982 18.7088 19.3117 18.2586 19.683 17.7818C19.817 17.6092 19.7863 17.3605 19.6139 17.226ZM13.5155 20.9302C12.9734 21.0677 12.4143 21.1614 11.8536 21.2078C11.6362 21.2256 11.4745 21.417 11.4925 21.635C11.5096 21.8417 11.6825 21.9982 11.8858 21.9982C11.8968 21.9982 11.9078 21.9976 11.919 21.9969C12.5229 21.9468 13.1254 21.8461 13.7102 21.6976C13.9217 21.6438 14.0494 21.4285 13.9959 21.2166C13.9425 21.0047 13.7276 20.8768 13.5155 20.9302ZM21.1618 14.0904C20.9547 14.0186 20.7304 14.1294 20.6599 14.3367C20.4781 14.8681 20.2499 15.3879 19.9828 15.8823C19.8784 16.0747 19.9499 16.3149 20.142 16.4189C20.2021 16.4513 20.2664 16.467 20.3302 16.467C20.4704 16.467 20.6062 16.392 20.6777 16.2599C20.9662 15.7272 21.2118 15.1663 21.4079 14.5937C21.4784 14.3866 21.3685 14.1611 21.1618 14.0904ZM0.931587 12.722C0.838776 12.17 0.791728 11.6039 0.790443 11.0398C0.789892 10.8213 0.613095 10.6448 0.395315 10.6448L0.394396 10.6446C0.176064 10.6451 -0.000549179 10.8228 1.28325e-06 11.0413C0.00128772 11.649 0.0523799 12.2583 0.15199 12.8529C0.184336 13.0463 0.351944 13.1833 0.541421 13.1833C0.563291 13.1833 0.585161 13.1814 0.607213 13.1778C0.822604 13.1415 0.967796 12.9372 0.931587 12.722ZM21.6045 10.5763C21.3864 10.5763 21.2094 10.7536 21.2094 10.9721V11.0175C21.2094 11.5817 21.1631 12.1477 21.0721 12.7001C21.0363 12.9157 21.182 13.1196 21.3972 13.1553C21.4191 13.159 21.4409 13.1608 21.4623 13.1608C21.6523 13.1608 21.8195 13.0233 21.8517 12.8297C21.95 12.2346 22 11.6253 22 11.0179V10.9724C21.9998 10.7536 21.8227 10.5763 21.6045 10.5763ZM16.5892 19.5762C16.1191 19.8849 15.6212 20.1556 15.1088 20.3815C14.909 20.4697 14.8183 20.7032 14.9063 20.9035C14.9713 21.0519 15.1163 21.14 15.2683 21.14C15.3213 21.14 15.3753 21.1292 15.4275 21.1065C15.9797 20.8632 16.5164 20.5715 17.0227 20.2388C17.2052 20.1188 17.2565 19.8733 17.1368 19.6907C17.0168 19.5073 16.7721 19.4567 16.5892 19.5762ZM10.1681 21.2096C9.60734 21.1641 9.04808 21.0721 8.50538 20.9357C8.29459 20.8838 8.07883 21.0114 8.02592 21.2234C7.97299 21.4357 8.10127 21.6505 8.31317 21.7036C8.89779 21.8507 9.50057 21.9501 10.105 21.9987C10.1159 21.9994 10.1264 22 10.1372 22C10.3408 22 10.514 21.843 10.5305 21.6359C10.5478 21.418 10.3857 21.2271 10.1681 21.2096ZM2.95277 17.311C2.81806 17.1387 2.57014 17.1082 2.39812 17.2429C2.22629 17.3775 2.19559 17.6261 2.33012 17.7984C2.70191 18.2753 3.11634 18.7245 3.56184 19.1339C3.63775 19.2038 3.73331 19.2384 3.82924 19.2384C3.93602 19.2384 4.04262 19.1953 4.12017 19.1105C4.26793 18.9496 4.25746 18.6989 4.09646 18.5513C3.68314 18.1705 3.29829 17.7533 2.95277 17.311ZM1.34726 14.357C1.27577 14.1503 1.05137 14.0404 0.844784 14.1118C0.638398 14.1834 0.528865 14.4084 0.599988 14.6151C0.797001 15.1866 1.04364 15.746 1.3329 16.2786C1.40458 16.4102 1.54021 16.4849 1.68007 16.4849C1.74402 16.4849 1.80871 16.4693 1.86899 16.4367C2.06086 16.3321 2.13143 16.0915 2.02705 15.8997C1.75873 15.4062 1.53013 14.8871 1.34726 14.357ZM6.91069 20.3901C6.39721 20.1648 5.89822 19.8947 5.42759 19.5873C5.24528 19.4682 4.99994 19.5192 4.88085 19.7026C4.76157 19.8853 4.81285 20.1309 4.9959 20.2502C5.5026 20.5817 6.04032 20.8723 6.59351 21.1151C6.64497 21.1377 6.69863 21.1484 6.75193 21.1484C6.90428 21.1484 7.04947 21.0601 7.11416 20.9115C7.20146 20.7109 7.11028 20.4777 6.91069 20.3901Z" fill="white"/>
</svg>
