<svg width="99" height="99" viewBox="0 0 99 99" fill="none" xmlns="http://www.w3.org/2000/svg">
<path opacity="0.02" d="M0.648017 44.5131C3.58109 17.5084 27.7957 -1.90311 54.9687 1.17214C82.057 4.23819 101.358 28.765 97.9848 55.9124C94.6542 82.7348 70.2901 101.802 43.3548 98.486C16.8783 95.2271 -2.24633 71.3542 0.648017 44.5131ZM92.1087 54.9197C92.4251 51.9539 92.4805 49.198 92.2578 46.4406C91.8407 41.2795 90.6889 36.3034 88.5564 31.5659C86.6773 27.3915 83.6959 24.3287 79.5248 22.429C76.9734 21.2675 74.2883 20.5127 71.5868 19.8209C66.9811 18.6421 62.5965 16.9536 58.49 14.5291C55.956 13.0321 53.391 11.5755 50.766 10.2497C45.8245 7.75742 40.6695 7.21466 35.3591 8.96136C30.4796 10.5662 26.0936 13.0842 22.1147 16.3097C18.6354 19.1302 15.7002 22.45 13.216 26.1791C10.2649 30.6104 9.09441 35.4218 9.91745 40.7052C10.3838 43.6931 11.2921 46.5593 12.2695 49.4045C13.7378 53.6772 14.9274 58.0073 15.4462 62.5124C15.8297 65.8592 16.2026 69.2162 16.7974 72.5306C17.8166 78.2184 20.7378 82.7481 25.5889 85.9492C31.3738 89.7644 37.713 92.0731 44.613 92.8149C50.362 93.4336 55.7394 92.3155 60.7575 89.4354C63.2838 87.9848 65.6235 86.27 67.8782 84.443C71.4829 81.5218 75.1637 78.7061 78.965 76.0445C81.4751 74.2872 83.8914 72.411 85.9594 70.1273C87.9949 67.88 89.5844 65.3518 90.5484 62.4773C91.3936 59.9597 91.8378 57.3433 92.1126 54.9182L92.1087 54.9197Z" fill="white"/>
</svg>
