<svg width="18" height="21" viewBox="0 0 18 21" fill="none" xmlns="http://www.w3.org/2000/svg">
<path d="M11.8668 20.2398H8.61494C6.20585 20.2398 4.07784 18.7668 3.32075 16.5742L3.17527 16.1527C2.82414 15.1365 2.16401 14.2628 1.26579 13.6258L0.832708 13.3187C0.315205 12.9756 0 12.4002 0 11.7858C0 11.0996 0.373258 10.4894 0.998172 10.153C1.6337 9.81107 2.38128 9.82765 2.99914 10.1972C3.00692 10.2018 3.01436 10.2067 3.02179 10.2119L4.63338 11.3308V1.96602C4.63338 1.09774 5.21531 0.322131 6.04852 0.0796733C6.63471 -0.0909708 7.25587 0.0153796 7.75091 0.371034C8.1831 0.681204 8.4408 1.12936 8.4408 1.56967V7.11744C8.7799 6.89122 9.18466 6.78333 9.6082 6.80915C10.4096 6.8589 11.0664 7.41719 11.2641 8.15293C11.2745 8.14523 11.2851 8.13805 11.2957 8.13053C11.7883 7.78958 12.4118 7.70631 13.007 7.9014C13.7291 8.13874 14.2496 8.74438 14.3894 9.47057C14.6935 9.25735 15.0681 9.13134 15.4727 9.13134H15.4754C16.561 9.13134 17.4441 9.97891 17.4441 11.0207V14.8935C17.4434 17.8415 14.9416 20.2394 11.8668 20.2394L11.8668 20.2398ZM1.96075 10.6755C1.76377 10.6755 1.56626 10.7244 1.38412 10.8223C1.01388 11.0215 0.792815 11.3818 0.792815 11.786C0.792815 12.1478 0.979178 12.4873 1.29174 12.6943L1.7349 13.0086C2.76583 13.7397 3.52383 14.7433 3.92738 15.9104L4.07286 16.3321C4.72203 18.2114 6.54724 19.474 8.61495 19.474H11.8668C14.5048 19.474 16.6508 17.4195 16.6508 14.894V11.0215C16.6508 10.4022 16.1234 9.89809 15.475 9.89809H15.4723C14.8957 9.89809 14.4267 10.3451 14.4267 10.8944C14.4267 11.1058 14.249 11.2775 14.0303 11.2775C13.8115 11.2775 13.6338 11.1058 13.6338 10.8944V9.86491C13.6338 9.29809 13.2792 8.80053 12.7514 8.62714C12.4018 8.51224 12.0395 8.55858 11.7573 8.75367C11.4867 8.9409 11.3249 9.24253 11.3249 9.56076C11.3249 9.7721 11.1472 9.94377 10.9285 9.94377C10.7097 9.94377 10.532 9.7721 10.532 9.56076V8.61724C10.532 8.06631 10.1039 7.60775 9.55718 7.57404C9.26109 7.5554 8.97951 7.65218 8.76607 7.84574C8.55617 8.03588 8.4406 8.29235 8.4406 8.56799C8.4406 8.77933 8.2629 8.951 8.04415 8.951C7.8254 8.951 7.64771 8.77933 7.64771 8.56799L7.64789 1.57002C7.64789 1.37681 7.50259 1.14751 7.27782 0.986094C6.9858 0.77612 6.6205 0.713538 6.27697 0.813567C5.77628 0.959248 5.42641 1.43322 5.42641 1.96637V12.0779C5.42641 12.2215 5.34323 12.3534 5.21067 12.4188C5.07864 12.4843 4.91936 12.4727 4.79865 12.3889L2.57133 10.8422C2.38161 10.731 2.17153 10.6753 1.96109 10.6753L1.96075 10.6755Z" fill="white"/>
<path d="M5.29612 0.939166L6.395 0.332031H7.33689L8.12179 1.5463V6.85873L8.43576 7.61765L9.22067 7.31408L10.3195 7.61765L11.2614 8.52835L12.5173 8.22479L13.3022 8.52835L14.2441 9.89441L16.1279 9.59084L17.0698 10.9569V15.3586L16.4418 17.18L15.186 18.8496L13.3022 19.9121H8.43576L5.29612 19.1532L4.19725 17.18L2.78441 14.1444L1.2146 13.3854C0.95296 12.9301 0.429688 11.9283 0.429688 11.564C0.429688 11.1997 1.16227 10.6027 1.52856 10.3498L3.09838 10.9569L4.19725 11.564H4.98216L5.29612 0.939166Z" fill="white"/>
</svg>
