<svg width="518" height="518" viewBox="0 0 518 518" fill="none" xmlns="http://www.w3.org/2000/svg">
<g clip-path="url(#clip0_86_2229)">
<path d="M258.86 0C402.21 0 517.85 116 517.2 260.34C516.55 404.23 398.87 519.49 254.52 517.26C111.9 515.07 -2.01995 398.09 0.0300465 254.86C2.04005 114.07 116.39 0.11 258.86 0ZM256.38 485.86C272.12 485.83 286.61 484.55 300.95 481.81C327.79 476.68 353.24 467.8 376.88 453.91C397.71 441.67 412.08 424.28 419.67 401.31C424.31 387.26 426.74 372.74 428.83 358.17C432.39 333.33 438.75 309.36 449.13 286.43C455.54 272.28 461.72 257.99 467.18 243.46C477.44 216.11 477.35 188.75 465.16 161.88C453.96 137.19 438.25 115.61 419.06 96.57C402.28 79.92 383.19 66.41 362.21 55.5C337.28 42.54 311.37 39.14 284.12 46.47C268.71 50.62 254.19 57.02 239.82 63.77C218.24 73.91 196.2 82.62 172.86 87.91C155.52 91.83 138.12 95.7 121.07 100.71C91.81 109.3 69.71 127.21 55.68 154.49C38.96 187.02 30.46 221.6 30.5 258.23C30.53 288.75 39.46 316.33 57.43 341.02C66.48 353.45 76.81 364.75 87.68 375.54C105.06 392.79 121.93 410.5 138.06 428.93C148.71 441.1 159.93 452.71 173.09 462.26C186.04 471.66 200.21 478.56 215.84 481.98C229.53 484.98 243.51 485.82 256.39 485.88L256.38 485.86Z" fill="white"/>
</g>
<defs>
<clipPath id="clip0_86_2229">
<rect width="517.2" height="517.3" fill="white"/>
</clipPath>
</defs>
</svg>
