<?xml version="1.0" encoding="UTF-8"?>
<svg id="Layer_2" data-name="Layer 2" xmlns="http://www.w3.org/2000/svg" xmlns:xlink="http://www.w3.org/1999/xlink" viewBox="0 0 131 23">
  <defs>
    <style>
      .cls-1 {
        fill: none;
      }

      .cls-2 {
        clip-path: url(#clippath);
      }

      .cls-3 {
        fill: #fff;
      }
    </style>
    <clipPath id="clippath">
      <rect class="cls-1" width="131" height="23"/>
    </clipPath>
  </defs>
  <g id="Layer_1-2" data-name="Layer 1">
    <g class="cls-2">
      <g>
        <path class="cls-3" d="m114.43,20.71L106.57.14h-2.38l-7.86,20.56-.9,1.84h1.91l1.66-3.05,1.06-2.72h10.66l1.06,2.72,1.66,3.05h1.9l-.9-1.84h0Zm-8.88-5.69h-4.81l4.48-12.72h.33l4.48,12.72h-4.48,0Z"/>
        <path class="cls-3" d="m7.22.02H.35s.02,20.42,0,20.63c-.02.22-.35,1.85-.35,1.85h2.16-.23,5.28c5.84,0,9.2-3.77,9.2-11.24S13.06.02,7.22.02Zm.03,20.77H2.09l.15-1.34.22-17.73h4.78c4.47,0,7.08,3.06,7.08,8.05v2.96c0,4.99-2.61,8.05-7.08,8.05h0Z"/>
        <path class="cls-3" d="m83.27,10.74v1.9h8.56c0,4.4-2.2,7.76-5.74,8.41-.26.04-.53.06-.81.06h-.02c-5.2-.01-8.4-4.29-8.58-8.88,0-.17,0-1.77.02-1.94.29-3.79,3.27-8.32,8.56-8.33h.02c2.53,0,4.39,1.19,5.64,2.87l1.53-1.17c-1.92-2.18-4-3.49-7.16-3.49-6.13,0-10.66,5.11-10.66,11.41s4.39,11.4,10.66,11.41c4.2-.11,5.86-3.44,6.39-4.67h.54l.32,4.31h1.71v-11.89h-10.97Z"/>
        <path class="cls-3" d="m33.45,22.34l-5.29-9.38c-.2,0-.37,0-.54,0v-.48c2.98-.55,4.55-2.45,4.55-5.87,0-4.18-1.66-6.61-6.36-6.61h-7.66v1.88h.01v9.59h-.01v1.75h.01v9.3h1.23s.57,0,.57,0v-9.29h4.18c1.32,0,.96,0,2.05-.01l5,9.14h2.27ZM19.97,1.88h6.27c2.4,0,3.98,1.38,3.98,3.47v2.3c0,2.28-1.77,3.81-4.42,3.81h-5.85V1.88Z"/>
        <path class="cls-3" d="m41.14,20.57c-1.26-.06-2.52-.53-3.42-1.41-.85-.85-1.39-1.94-1.45-3.22V.08h-1.9v2.57c0,.3-.02,13.28-.02,13.28h.01c0,2.76.84,4.67,4.21,6.28.29.14.63.17.97.22.49.1,1.03.15,1.59.18,0-1.85,0-.11,0-2.04h0Z"/>
        <path class="cls-3" d="m47.84,2.66V.08h-1.83v15.85c-.06,1.28-.6,2.38-1.45,3.22-.9.89-2.16,1.35-3.42,1.41v2.04c.56-.03,1.11-.08,1.59-.18.34-.06.68-.1.97-.22,3.15-1.39,4.14-3.51,4.14-6.28h.01s-.02-12.97-.02-13.28h0Z"/>
        <path class="cls-3" d="m131,.11h-1.92s.02,18.78.02,18.78h-.88L120.67.11h-3.72v22.48h1.9V6.78c.03-2.68,0-1.56.03-4.48h.72l8.24,20.29h3.17V.11h0Z"/>
        <path class="cls-3" d="m69.16.04l-7.54,18.74h-.24L53.84.04h-3.92v22.43h2.02V6.7c.03-2.68,0-1.56.03-4.47h.25l8.22,20.24h2.1l8.22-20.24h.26c.03,2.91,0,1.79.03,4.47v15.77h2.02V.04h-3.93,0Z"/>
      </g>
    </g>
  </g>
</svg>