<svg width="32" height="32" viewBox="0 0 32 32" fill="none" xmlns="http://www.w3.org/2000/svg">
<path d="M0.5 7C0.5 3.41015 3.41015 0.5 7 0.5H25C28.5899 0.5 31.5 3.41015 31.5 7V25C31.5 28.5899 28.5899 31.5 25 31.5H7C3.41015 31.5 0.5 28.5899 0.5 25V7Z" stroke="white"/>
<path d="M23.136 23H20.4L20.115 17.661C20.0263 16.065 19.982 14.7097 19.982 13.595C19.982 12.9997 19.9883 12.569 20.001 12.303L17.778 21.594H15.137L12.762 12.284C12.8127 13.0567 12.838 13.9243 12.838 14.887C12.838 15.913 12.8127 16.8567 12.762 17.718L12.477 23H9.76L10.786 9.852H14.339L16.505 18.915L18.538 9.852H22.129L23.136 23Z" fill="white"/>
</svg>
