<svg width="27" height="27" viewBox="0 0 27 27" fill="none" xmlns="http://www.w3.org/2000/svg">
<rect x="12.0137" y="12.0137" width="12.5173" height="12.5173" fill="#28272C"/>
<path d="M18 12.2593H13.7407V8H12.2593V12.2593H8V13.7407H12.2593V18H13.7407V13.7407H18V12.2593Z" fill="white"/>
<path d="M12.133 0.998469C12.1467 0.998469 12.1602 0.997804 12.1739 0.996476C12.8398 0.939592 13.5284 0.937376 14.2015 0.989836C14.4579 1.01463 14.6919 0.814089 14.712 0.552241C14.7324 0.290172 14.5368 0.0610817 14.2751 0.0409435C13.5511 -0.016162 12.81 -0.0132852 12.0933 0.0480264C11.8318 0.0699393 11.6376 0.300576 11.6601 0.562423C11.6813 0.810989 11.8888 0.998469 12.133 0.998469ZM0.565843 11.6438C0.591478 11.6483 0.617555 11.6503 0.64275 11.6503C0.87148 11.6503 1.07303 11.4847 1.11125 11.2507C1.21998 10.5832 1.38529 9.9209 1.60274 9.28281C1.6876 9.03403 1.55501 8.76332 1.30617 8.67855C1.05644 8.59356 0.787495 8.72681 0.70286 8.97559C0.468829 9.66417 0.290264 10.3782 0.173138 11.0978C0.130928 11.357 0.306619 11.6016 0.565843 11.6438ZM1.76935 7.61455C1.84117 7.65329 1.91852 7.67166 1.99454 7.67166C2.16338 7.67166 2.32714 7.58113 2.4131 7.42154C2.73377 6.82589 3.10591 6.25354 3.51919 5.72033C3.68007 5.51271 3.64272 5.21368 3.43521 5.05278C3.22791 4.8912 2.92891 4.92905 2.76871 5.13689C2.32318 5.71191 1.92184 6.32836 1.57646 6.97007C1.45204 7.20115 1.53819 7.48972 1.76935 7.61455ZM4.56604 4.34977C4.68163 4.34977 4.79742 4.30794 4.88913 4.22317C5.3846 3.76344 5.92162 3.34222 6.48362 2.9717C6.70285 2.82738 6.76362 2.53189 6.61953 2.31253C6.47545 2.09274 6.18042 2.03231 5.9614 2.17641C5.35544 2.57549 4.77753 3.02948 4.24296 3.5246C4.0507 3.70322 4.03898 4.00447 4.21732 4.19725C4.31102 4.29863 4.4383 4.34977 4.56604 4.34977ZM8.06969 2.03983C8.134 2.03983 8.1992 2.02677 8.26173 1.9991C8.87851 1.72553 9.52227 1.50197 10.176 1.33444C10.4303 1.26937 10.5835 1.01017 10.5185 0.755396C10.4533 0.500632 10.195 0.345691 9.94039 0.412316C9.2361 0.592489 8.54193 0.83375 7.87696 1.1286C7.63718 1.23528 7.52845 1.51639 7.63452 1.75654C7.7132 1.93428 7.88715 2.03983 8.06969 2.03983ZM24.8253 9.20776C25.0467 9.84613 25.2163 10.5073 25.3296 11.1733C25.369 11.4053 25.5701 11.5693 25.7975 11.5693C25.824 11.5693 25.8507 11.5671 25.8779 11.5626C26.1365 11.5186 26.3104 11.2729 26.2666 11.0137C26.1446 10.2959 25.9619 9.58319 25.7232 8.89569C25.6368 8.64713 25.3665 8.51565 25.1184 8.60219C24.8702 8.6883 24.7393 8.95917 24.8253 9.20776ZM16.2011 1.31567C16.8551 1.4788 17.501 1.69793 18.1205 1.96798C18.1823 1.99454 18.2467 2.00738 18.3099 2.00738C18.4933 2.00738 18.6681 1.90047 18.7461 1.7214C18.8506 1.48014 18.7401 1.1997 18.4999 1.09476C17.8323 0.804142 17.136 0.567747 16.4312 0.391569C16.1762 0.328706 15.9185 0.483205 15.8553 0.738633C15.7914 0.993619 15.9463 1.2519 16.2011 1.31567ZM24.0039 7.3543C24.0903 7.51234 24.2531 7.60176 24.4211 7.60176C24.498 7.60176 24.5762 7.58295 24.6489 7.54333C24.8792 7.41694 24.9638 7.12765 24.8381 6.89725C24.4896 6.25979 24.0854 5.64578 23.6354 5.07206C23.4732 4.86511 23.1751 4.82925 22.9683 4.99172C22.7621 5.15418 22.7258 5.45343 22.888 5.65995C23.3053 6.19294 23.6805 6.7629 24.0039 7.3543ZM19.9056 2.92945C20.4711 3.29732 21.0103 3.71543 21.5089 4.17185C21.6001 4.25552 21.7148 4.29691 21.8298 4.29691C21.9584 4.29691 22.087 4.24489 22.1802 4.14241C22.3577 3.94851 22.3444 3.64705 22.1504 3.46998C21.6134 2.97816 21.0324 2.52795 20.4234 2.13153C20.2033 1.98833 19.9089 2.05052 19.7659 2.2712C19.6232 2.49143 19.6857 2.78625 19.9056 2.92945ZM23.5853 20.7139C23.3787 20.5527 23.0797 20.5892 22.9184 20.7971C22.504 21.3298 22.0421 21.8327 21.5455 22.2914C21.3528 22.4698 21.3409 22.7708 21.5186 22.964C21.6123 23.0656 21.7398 23.117 21.868 23.117C21.9833 23.117 22.0989 23.0751 22.1904 22.991C22.7247 22.497 23.222 21.9556 23.6684 21.3823C23.8295 21.1747 23.7926 20.8757 23.5853 20.7139ZM16.2522 25.1681C15.6002 25.3335 14.928 25.4461 14.2537 25.5019C13.9923 25.5234 13.7978 25.7536 13.8195 26.0156C13.84 26.2642 14.048 26.4523 14.2924 26.4523C14.3057 26.4523 14.3189 26.4517 14.3324 26.4508C15.0586 26.3906 15.783 26.2695 16.4862 26.0909C16.7405 26.0263 16.8941 25.7673 16.8298 25.5125C16.7655 25.2578 16.5072 25.1039 16.2522 25.1681ZM25.4466 16.9434C25.1976 16.8571 24.9279 16.9903 24.8431 17.2396C24.6245 17.8786 24.35 18.5037 24.0289 19.0982C23.9034 19.3295 23.9894 19.6183 24.2203 19.7434C24.2926 19.7824 24.3699 19.8012 24.4466 19.8012C24.6152 19.8012 24.7785 19.7111 24.8645 19.5522C25.2114 18.9116 25.5067 18.2372 25.7425 17.5486C25.8274 17.2996 25.6952 17.0284 25.4466 16.9434ZM1.12021 15.298C1.00861 14.6341 0.952036 13.9535 0.950492 13.2751C0.949829 13.0124 0.737235 12.8001 0.475358 12.8001L0.474253 12.7999C0.211714 12.8006 -0.000660377 13.0142 1.54309e-06 13.2769C0.00154845 14.0077 0.0629857 14.7404 0.182765 15.4553C0.22166 15.688 0.423206 15.8526 0.651048 15.8526C0.677346 15.8526 0.703644 15.8504 0.730161 15.846C0.989164 15.8024 1.16375 15.5567 1.12021 15.298ZM25.979 12.7178C25.7167 12.7178 25.5038 12.9309 25.5038 13.1937V13.2483C25.5038 13.9268 25.4482 14.6074 25.3388 15.2716C25.2957 15.5308 25.4709 15.7761 25.7297 15.819C25.756 15.8234 25.7823 15.8256 25.8079 15.8256C26.0364 15.8256 26.2375 15.6603 26.2762 15.4275C26.3944 14.7118 26.4546 13.9792 26.4546 13.2488V13.1941C26.4543 12.931 26.2413 12.7178 25.979 12.7178ZM19.9482 23.5399C19.3829 23.9111 18.7842 24.2367 18.168 24.5083C17.9278 24.6143 17.8186 24.8952 17.9245 25.136C18.0027 25.3144 18.1771 25.4205 18.3599 25.4205C18.4235 25.4205 18.4885 25.4074 18.5512 25.3802C19.2153 25.0876 19.8607 24.7368 20.4694 24.3368C20.6889 24.1925 20.7506 23.8972 20.6067 23.6776C20.4624 23.4572 20.1681 23.3963 19.9482 23.5399ZM12.2269 25.5041C11.5526 25.4495 10.8801 25.3388 10.2276 25.1748C9.97407 25.1124 9.71462 25.2657 9.651 25.5207C9.58735 25.7759 9.74161 26.0342 9.99642 26.0982C10.6994 26.275 11.4242 26.3946 12.1511 26.453C12.1641 26.4539 12.1767 26.4546 12.1898 26.4546C12.4346 26.4546 12.6428 26.2657 12.6627 26.0167C12.6835 25.7547 12.4885 25.5252 12.2269 25.5041ZM3.55065 20.8161C3.38866 20.609 3.09054 20.5722 2.88369 20.7342C2.67707 20.896 2.64016 21.1951 2.80193 21.4022C3.24899 21.9757 3.74734 22.5158 4.28304 23.0081C4.37431 23.0922 4.48923 23.1338 4.60459 23.1338C4.73298 23.1338 4.86116 23.082 4.95442 22.98C5.1321 22.7865 5.1195 22.4851 4.92591 22.3076C4.4289 21.8496 3.96613 21.348 3.55065 20.8161ZM1.62005 17.264C1.53408 17.0154 1.26425 16.8833 1.01584 16.9692C0.76766 17.0553 0.635949 17.3258 0.721473 17.5744C0.958378 18.2616 1.25495 18.9343 1.60279 19.5746C1.68897 19.7329 1.85207 19.8228 2.02024 19.8228C2.09715 19.8228 2.17494 19.8039 2.24742 19.7648C2.47814 19.639 2.563 19.3497 2.43748 19.1191C2.11483 18.5256 1.83995 17.9015 1.62005 17.264ZM8.30996 24.5186C7.69251 24.2477 7.09248 23.923 6.52657 23.5534C6.30735 23.4102 6.01232 23.4715 5.86912 23.6919C5.72569 23.9117 5.78735 24.207 6.00746 24.3504C6.61677 24.7491 7.26336 25.0985 7.92856 25.3905C7.99044 25.4177 8.05497 25.4305 8.11905 25.4305C8.30226 25.4305 8.47684 25.3243 8.55463 25.1457C8.6596 24.9044 8.54996 24.624 8.30996 24.5186Z" fill="white"/>
</svg>
